# xmcd
#
# Track frame offsets:
#	150
#	11367
#	27340
#	38905
#	59282
#	74020
#	88052
#	99810
#	112547
#	122667
#	141377
#	154152
#	173742
#	185097
#	196585
#	225252
#	241985
#
# Disc length: 3429 seconds
#
# Revision: 0
# Processed by: cddbd v1.5.2PL0 Copyright (c) Steve Scherf et al.
# Submitted via: audiograbber 1.83.01
#
DISCID=d30d6311
DTITLE=The Small Faces - The Immediate Years [CD 3)
DYEAR=1995
DGENRE=Rock
TTITLE0=Ogden's Nut Gone Flake
TTITLE1=Afterglow (Of Your Love)
TTITLE2=Long Agos And Worlds Apart
TTITLE3=Rene
TTITLE4=Song Of A Baker
TTITLE5=Lazy Sunday
TTITLE6=Happiness Stan
TTITLE7=Rollin' Over
TTITLE8=The Hungry Intruder
TTITLE9=The Journey
TTITLE10=Mad John
TTITLE11=Happydaystoytown
TTITLE12=Rollin' Over [live]
TTITLE13=If I Were A Carpenter [live]
TTITLE14=Every Little Bit Hurts [live]
TTITLE15=All Or Nothing [live]
TTITLE16=Tin Soldier [live]
EXTD=
EXTT0=
EXTT1=
EXTT2=
EXTT3=
EXTT4=
EXTT5=
EXTT6=
EXTT7=
EXTT8=
EXTT9=
EXTT10=
EXTT11=
EXTT12=
EXTT13=
EXTT14=
EXTT15=
EXTT16=
PLAYORDER=
